<?xml version="1.0" encoding="UTF-8"?>
<svg version="1.1" xmlns="http://www.w3.org/2000/svg" width="512" height="512">
<path d="M0 0 C1.25296875 0.96486328 1.25296875 0.96486328 2.53125 1.94921875 C18.35588984 14.37937566 34.07536235 28.74411466 46 45 C47.01126953 46.28583984 47.01126953 46.28583984 48.04296875 47.59765625 C82.35100337 91.74268487 100.49527938 146.49000778 100.375 202.25 C100.37478851 203.16187073 100.37457703 204.07374146 100.37435913 205.01324463 C100.32105866 228.18808819 97.66804545 250.73634182 91 273 C90.70528809 274.00144043 90.41057617 275.00288086 90.10693359 276.03466797 C82.60764798 301.09896378 71.83035113 324.42455265 57 346 C56.27039063 347.0621875 55.54078125 348.124375 54.7890625 349.21875 C47.01263046 360.16108125 38.24312758 370.28090717 29 380 C28.46213867 380.56654297 27.92427734 381.13308594 27.37011719 381.71679688 C19.13864309 390.32394194 10.49935169 397.83423594 1 405 C-0.39659159 406.14490901 -1.79251459 407.29063452 -3.1875 408.4375 C-45.59770152 441.20545607 -100.0903245 457.48967026 -153.25 457.375 C-154.61780609 457.37468277 -154.61780609 457.37468277 -156.01324463 457.37435913 C-179.18808819 457.32105866 -201.73634182 454.66804545 -224 448 C-225.00144043 447.70528809 -226.00288086 447.41057617 -227.03466797 447.10693359 C-256.49494302 438.29236252 -283.62119957 424.78041141 -308 406 C-308.81210937 405.37996094 -309.62421875 404.75992187 -310.4609375 404.12109375 C-327.7330077 390.63580235 -344.27256077 374.87117115 -357 357 C-357.84627859 355.84664412 -358.69397443 354.69432702 -359.54296875 353.54296875 C-373.49673883 334.49187091 -384.34751009 313.9425929 -393 292 C-393.46019531 290.85789062 -393.92039062 289.71578125 -394.39453125 288.5390625 C-416.87201713 229.59809951 -413.19932688 158.04882864 -387.60302734 100.87988281 C-382.09921719 88.83143763 -376.43766056 76.98681037 -369 66 C-368.58395508 65.37335449 -368.16791016 64.74670898 -367.73925781 64.10107422 C-359.97791942 52.4143649 -351.52182988 41.64533878 -342.0546875 31.27734375 C-340.29434202 29.3262384 -338.60815677 27.33986456 -336.9375 25.3125 C-334.29413308 22.20690499 -331.37506614 19.5895638 -328.26953125 16.953125 C-325.62184449 14.67456496 -323.06563849 12.30796544 -320.5 9.9375 C-316.16601268 5.99535263 -311.79044877 2.36603215 -307 -1 C-306.03449219 -1.68707031 -305.06898438 -2.37414063 -304.07421875 -3.08203125 C-284.92606064 -16.54307174 -264.77118004 -27.41510229 -243 -36 C-241.85789063 -36.46019531 -240.71578125 -36.92039062 -239.5390625 -37.39453125 C-160.88011639 -67.39158697 -66.02149633 -50.90943305 0 0 Z " fill="#BF7FFE" transform="translate(410,53)"/>
<path d="M0 0 C140.70175439 0 140.70175439 0 164.37109375 22.2265625 C179.76024407 38.69208062 183.36613856 59.50306206 183.3125 81.3125 C183.32861328 82.61123047 183.34472656 83.90996094 183.36132812 85.24804688 C183.37167845 106.06255118 177.66786852 126.36907043 163.2578125 141.90234375 C159.24092651 145.63429492 154.78463915 148.3588261 150 151 C148.80697266 151.67675781 148.80697266 151.67675781 147.58984375 152.3671875 C123.89490931 164.45873883 94.77737751 163.36571637 69 163 C69.29624026 164.58158647 69.59813192 166.16211496 69.90234375 167.7421875 C70.06984131 168.62245605 70.23733887 169.50272461 70.40991211 170.40966797 C72.30376369 178.72318275 77.00067583 184.22373162 84 189 C90.62029967 192.09659178 97.78472401 192.60219961 105 193 C105.04125 191.906875 105.0825 190.81375 105.125 189.6875 C106.18511705 181.26628851 111.7188322 172.6192813 118 167 C129.68327102 158.14064757 140.61115788 155.88631253 155 157 C158.21691172 157.65587521 161.04212334 158.59065877 164 160 C164.96679688 160.44472656 165.93359375 160.88945312 166.9296875 161.34765625 C177.84343513 167.22108532 185.42564912 177.2840721 189 189 C189 190.32 189 191.64 189 193 C197.25 193 205.5 193 214 193 C214.33 190.36 214.66 187.72 215 185 C218.94305014 174.0505739 226.14061844 166.87302667 236 161 C238.6610602 159.75148888 241.17733168 158.87600051 244 158 C244.86818359 157.72736328 244.86818359 157.72736328 245.75390625 157.44921875 C257.90323173 155.01935365 269.2022907 157.28581609 279.6875 163.6875 C288.14825028 169.72656862 294.9240087 178.12462655 297.60546875 188.296875 C299.6124336 202.04756484 298.0584951 214.37092986 289.75 225.875 C281.99956267 234.97842316 272.8080161 240.06274736 261 242 C248.08945796 242.84114138 237.87323053 240.10551476 227.546875 232.09765625 C221.10419986 226.21378457 217.0525085 219.1269358 214 211 C214 209.35 214 207.7 214 206 C201.625 206.495 201.625 206.495 189 207 C188.01 210.96 188.01 210.96 187 215 C182.16280825 226.68050567 173.38100587 234.80400251 162 240 C151.56227167 243.50532406 139.36758715 243.2134096 129.27734375 238.8125 C118.23103997 233.22097347 110.29113507 224.92845588 106.1875 213.1875 C105.34111 210.54545386 105 208.81509377 105 206 C104.42894531 206.03480469 103.85789062 206.06960938 103.26953125 206.10546875 C91.64480721 206.49357559 81.44959101 203.88114234 72 197 C71.34 196.34 70.68 195.68 70 195 C69.90691342 203.43256745 69.83604077 211.86491667 69.79275131 220.29787254 C69.77196408 224.21455539 69.74381128 228.13088415 69.69824219 232.04736328 C69.65446435 235.83401546 69.6307964 239.62032921 69.62049103 243.40721512 C69.61315641 244.84478704 69.59883501 246.28234251 69.57707977 247.71976852 C69.40416007 259.62941128 71.12748768 269.87700887 79.71484375 278.77734375 C87.1753978 285.76514982 95.03488583 288.41889629 105 290 C105.061875 288.88625 105.12375 287.7725 105.1875 286.625 C106.55222982 276.16821878 113.27574092 267.96176125 121.0234375 261.24609375 C128.92235701 255.38797314 139.58929605 252.13125638 149.4375 252.6171875 C158.79370364 254.01491304 166.53428932 257.26319074 174 263 C174.886875 263.598125 175.77375 264.19625 176.6875 264.8125 C180.18345825 268.11948753 182.58727829 271.85540681 185 276 C185.41894531 276.69480469 185.83789062 277.38960938 186.26953125 278.10546875 C190.80625447 287.16288437 190.4205021 299.46409427 188.3046875 309.19921875 C187.39037951 311.6463372 186.34403178 313.76272971 185 316 C184.34644531 317.16015625 184.34644531 317.16015625 183.6796875 318.34375 C177.150765 329.04690165 167.8584188 334.84459635 155.9375 338.3125 C143.91452271 340.41175 132.51286582 338.40024076 122.2421875 331.640625 C113.43391137 325.19554491 107.22883176 315.9587776 105.3046875 305.0625 C105.20414062 304.051875 105.10359375 303.04125 105 302 C104.33355469 302.04640625 103.66710937 302.0928125 102.98046875 302.140625 C89.79488312 302.6569836 79.46150391 297.3263048 69.9375 288.5625 C55.68862479 273.87452232 56 257.33171533 56 237 C37.52 237 19.04 237 0 237 C0 158.79 0 80.58 0 0 Z " fill="#2F2F34" transform="translate(119,87)"/>
<path d="M0 0 C1.25296875 0.96486328 1.25296875 0.96486328 2.53125 1.94921875 C18.35588984 14.37937566 34.07536235 28.74411466 46 45 C47.01126953 46.28583984 47.01126953 46.28583984 48.04296875 47.59765625 C82.35100337 91.74268487 100.49527938 146.49000778 100.375 202.25 C100.37478851 203.16187073 100.37457703 204.07374146 100.37435913 205.01324463 C100.32105866 228.18808819 97.66804545 250.73634182 91 273 C90.70528809 274.00144043 90.41057617 275.00288086 90.10693359 276.03466797 C82.60764798 301.09896378 71.83035113 324.42455265 57 346 C56.27039063 347.0621875 55.54078125 348.124375 54.7890625 349.21875 C47.01263046 360.16108125 38.24312758 370.28090717 29 380 C28.46213867 380.56654297 27.92427734 381.13308594 27.37011719 381.71679688 C19.13864309 390.32394194 10.49935169 397.83423594 1 405 C-0.39659159 406.14490901 -1.79251459 407.29063452 -3.1875 408.4375 C-45.59770152 441.20545607 -100.0903245 457.48967026 -153.25 457.375 C-154.61780609 457.37468277 -154.61780609 457.37468277 -156.01324463 457.37435913 C-179.18808819 457.32105866 -201.73634182 454.66804545 -224 448 C-225.00144043 447.70528809 -226.00288086 447.41057617 -227.03466797 447.10693359 C-256.49494302 438.29236252 -283.62119957 424.78041141 -308 406 C-308.81210937 405.37996094 -309.62421875 404.75992187 -310.4609375 404.12109375 C-327.7330077 390.63580235 -344.27256077 374.87117115 -357 357 C-357.84627859 355.84664412 -358.69397443 354.69432702 -359.54296875 353.54296875 C-373.49673883 334.49187091 -384.34751009 313.9425929 -393 292 C-393.46019531 290.85789062 -393.92039062 289.71578125 -394.39453125 288.5390625 C-416.87201713 229.59809951 -413.19932688 158.04882864 -387.60302734 100.87988281 C-382.09921719 88.83143763 -376.43766056 76.98681037 -369 66 C-368.58395508 65.37335449 -368.16791016 64.74670898 -367.73925781 64.10107422 C-359.97791942 52.4143649 -351.52182988 41.64533878 -342.0546875 31.27734375 C-340.29434202 29.3262384 -338.60815677 27.33986456 -336.9375 25.3125 C-334.29413308 22.20690499 -331.37506614 19.5895638 -328.26953125 16.953125 C-325.62184449 14.67456496 -323.06563849 12.30796544 -320.5 9.9375 C-316.16601268 5.99535263 -311.79044877 2.36603215 -307 -1 C-306.03449219 -1.68707031 -305.06898438 -2.37414063 -304.07421875 -3.08203125 C-284.92606064 -16.54307174 -264.77118004 -27.41510229 -243 -36 C-241.85789063 -36.46019531 -240.71578125 -36.92039062 -239.5390625 -37.39453125 C-160.88011639 -67.39158697 -66.02149633 -50.90943305 0 0 Z M-324.4375 46.6875 C-325.63287414 48.11845883 -326.81890871 49.5572298 -328 51 C-328.97482709 52.15140868 -329.95013513 53.30241024 -330.92578125 54.453125 C-338.78736949 63.81904767 -345.69185649 73.5282922 -352 84 C-352.4237793 84.69786621 -352.84755859 85.39573242 -353.28417969 86.11474609 C-367.34308321 109.52644055 -376.93435948 135.55822298 -381.55810547 162.45166016 C-381.85960327 164.19035299 -382.18797138 165.92454701 -382.53955078 167.65380859 C-384.43961539 177.93181671 -384.3721884 188.23031806 -384.37060547 198.65234375 C-384.37494394 201.83389263 -384.41126396 205.0140109 -384.44921875 208.1953125 C-384.52688262 222.52068993 -382.92862825 235.99023689 -380 250 C-379.83995483 250.79013489 -379.67990967 251.58026978 -379.51501465 252.39434814 C-371.42608689 292.2911528 -351.46354429 327.56071197 -325 358 C-324.35160156 358.77214844 -323.70320313 359.54429687 -323.03515625 360.33984375 C-319.68423371 364.29864339 -316.1580512 367.76440165 -312.1953125 371.109375 C-310.65584101 372.43518318 -309.15302875 373.80419492 -307.6796875 375.203125 C-290.88834023 391.12152761 -270.90136308 403.27038664 -250 413 C-248.92588867 413.50080078 -248.92588867 413.50080078 -247.83007812 414.01171875 C-228.17676837 423.0346103 -207.75375604 428.405004 -186.41162109 431.63037109 C-184.7088972 431.8913474 -183.01231733 432.19404286 -181.32202148 432.52612305 C-176.90051544 433.15683836 -172.53584542 433.24049851 -168.07421875 433.30859375 C-167.10671188 433.32403732 -166.13920502 433.3394809 -165.14237976 433.35539246 C-102.47485477 434.16671658 -42.56921356 416.07870588 3.39550781 371.55322266 C4.54269142 370.44269586 5.69644797 369.33894288 6.85449219 368.23974609 C17.02777132 358.56535374 25.84392137 348.41962392 34 337 C34.42941895 336.41524902 34.85883789 335.83049805 35.30126953 335.22802734 C70.15461054 287.6305284 82.48359582 225.93754938 74.91479492 168.01538086 C74.15036129 163.2860587 73.15356259 158.64858744 72 154 C71.6299585 152.46327637 71.6299585 152.46327637 71.25244141 150.89550781 C66.24924506 130.5694468 58.88080067 111.4376714 49 93 C48.68063477 92.39994141 48.36126953 91.79988281 48.03222656 91.18164062 C39.391462 75.09315108 28.32603595 60.70337294 16.0234375 47.24609375 C14.42588072 45.47274404 12.91616508 43.68316018 11.4375 41.8125 C8.88097236 38.86266042 6.16990516 36.41494726 3.19921875 33.89453125 C1.73517729 32.63332324 0.29946368 31.33845457 -1.10546875 30.01171875 C-34.10529986 -1.05696906 -78.69823953 -19.22340186 -123 -26 C-124.04687988 -26.17740723 -125.09375977 -26.35481445 -126.17236328 -26.53759766 C-130.98086559 -27.11849467 -135.71912889 -27.20105831 -140.55859375 -27.23828125 C-141.57937515 -27.246353 -142.60015656 -27.25442474 -143.65187073 -27.26274109 C-145.81615528 -27.27653958 -147.98046121 -27.28728057 -150.14477539 -27.29516602 C-152.30955608 -27.30656213 -154.47431153 -27.32681121 -156.63891602 -27.35668945 C-219.14848298 -28.2169349 -282.64229867 -0.13955603 -324.4375 46.6875 Z " fill="#f7f6f3" transform="translate(410,53)"/>
<path d="M0 0 C8.49795445 6.85203485 15.09509894 15.56327071 16.85546875 26.49609375 C17.80325299 40.68178253 15.96022163 51.60104228 6.98046875 63.08984375 C-0.42838436 71.47928035 -11.22968102 76.69267571 -22.3984375 77.69921875 C-35.99796175 77.97535122 -46.93596485 73.38811923 -56.95703125 64.24609375 C-62.96572906 57.80303224 -66.81158923 50.31905726 -67.14453125 41.49609375 C-67.7478125 41.55410156 -68.35109375 41.61210937 -68.97265625 41.671875 C-75.50653687 42.0407231 -75.50653687 42.0407231 -78.70703125 39.30859375 C-80.25003953 36.28966451 -80.84288443 34.81327135 -80.14453125 31.49609375 C-76.93641898 27.7532961 -72.77773104 27.88219373 -68.14453125 27.49609375 C-67.93699219 26.74585938 -67.72945313 25.995625 -67.515625 25.22265625 C-63.97540263 13.4614154 -57.81324847 3.61705818 -47.03515625 -2.75 C-45.09629319 -3.74494289 -43.14774492 -4.64724036 -41.14453125 -5.50390625 C-40.27828125 -5.89578125 -39.41203125 -6.28765625 -38.51953125 -6.69140625 C-25.33544686 -11.20175091 -11.09881324 -8.10678344 0 0 Z " fill="#313037" transform="translate(400.14453125,348.50390625)"/>
<path d="M0 0 C7.84406968 6.34201378 12.96322803 12.67948468 14.24609375 22.8125 C14.68192042 31.26489594 11.6111449 39.09957141 6.48046875 45.77734375 C0.29393154 52.18315063 -7.09851405 55.34701518 -15.9375 55.6875 C-24.64245726 55.4632814 -31.80127731 52.45168139 -38.0625 46.375 C-43.86967656 39.30595359 -46.6085657 32.24624905 -46.37109375 23.0546875 C-45.37952295 14.44433851 -41.74540029 6.94618909 -35.0625 1.375 C-23.2171374 -5.94393744 -12.35437054 -6.55538029 0 0 Z " fill="#BD7EFA" transform="translate(282.0625,357.625)"/>
<path d="M0 0 C8.21981752 4.50207563 14.08047702 10.41579808 17 19.4375 C18.45791602 26.97157535 18.81663607 33.64304897 15 40.4375 C14.59652344 41.18773437 14.19304687 41.93796875 13.77734375 42.7109375 C9.38774605 50.07176707 3.14535715 54.75890722 -5 57.4375 C-13.99525329 58.33469495 -22.20627129 57.93677971 -29.6328125 52.515625 C-36.41449595 46.78184016 -41.34786008 40.63695666 -42.30859375 31.50390625 C-42.6403303 22.48670368 -41.39775927 15.80485585 -36 8.4375 C-26.37755541 -1.2002914 -13.16459569 -5.36250139 0 0 Z " fill="#BD7EFB" transform="translate(387,258.5625)"/>
<path d="M0 0 C6.45688446 5.19358098 11.79710573 11.2537462 13.5625 19.5390625 C14.47267611 29.43722771 12.7838868 36.7959917 7.00390625 44.953125 C1.96064044 50.54235903 -5.84369117 54.71213807 -13.32421875 55.5625 C-21.93974416 55.99530504 -29.72668588 53.57304864 -36.5 48.1875 C-43.03993785 41.96985888 -46.16861027 33.69292295 -46.5625 24.8125 C-46.47362825 16.7251709 -43.45171482 10.33499831 -38.33203125 4.14453125 C-27.25041637 -6.57150458 -13.01697583 -7.02916695 0 0 Z " fill="#BE7FFC" transform="translate(391.125,357.6875)"/>
<path d="M0 0 C8.3892704 4.57887659 14.76343842 11.15433795 17.609375 20.421875 C19.37100802 29.51190139 17.45137957 37.87106888 12.59765625 45.69921875 C7.30438697 52.49375755 -0.04956249 56.73338963 -8.5703125 57.9453125 C-19.09092615 58.28615311 -26.49362272 55.62077606 -34.20703125 48.5078125 C-40.82278988 40.86870122 -42.67368022 32.25209621 -42 22.4375 C-40.67192722 13.57881671 -34.68656605 7.39092007 -28.02734375 1.7734375 C-20.47008632 -3.20648936 -8.32885944 -3.39269974 0 0 Z " fill="#BC7EFA" transform="translate(278,258.5625)"/>
<path d="M0 0 C27.18181818 0 27.18181818 0 35.3125 5.0625 C41.62876235 11.96632164 42.3592392 19.00339663 42.4375 28.0625 C42.44765137 28.90111572 42.45780273 29.73973145 42.46826172 30.60375977 C42.37083141 37.61256662 40.93725702 43.7712383 37.3125 49.8125 C26.95528501 59.60986553 13.73096288 57 0 57 C0 38.19 0 19.38 0 0 Z " fill="#BE7FFD" transform="translate(188,140)"/>
<path d="M0 0 C1.875 1.125 1.875 1.125 3 3 C3.3963698 6.57723742 3.40675042 8.39085686 1.3828125 11.421875 C0.26519531 12.57429688 0.26519531 12.57429688 -0.875 13.75 C-1.6896875 14.60078125 -2.504375 15.4515625 -3.34375 16.328125 C-4.2203125 17.20984375 -5.096875 18.0915625 -6 19 C-6.8971875 19.92296875 -7.794375 20.8459375 -8.71875 21.796875 C-17.52273788 30.75622737 -17.52273788 30.75622737 -21.3671875 31.390625 C-24.99416394 30.85249793 -26.48529812 29.25246968 -29.125 26.75 C-29.97320312 25.96109375 -30.82140625 25.1721875 -31.6953125 24.359375 C-36.8445831 19.08791832 -36.8445831 19.08791832 -37.4375 14.9375 C-37 12 -37 12 -35.4375 10.0625 C-31.89291164 8.51742302 -29.70294377 9.02554111 -26 10 C-24.29749607 11.28725907 -22.62426884 12.61533171 -21 14 C-20.08476562 13.07316406 -19.16953125 12.14632813 -18.2265625 11.19140625 C-17.0261739 9.98163961 -15.82564583 8.77201135 -14.625 7.5625 C-14.02171875 6.95083984 -13.4184375 6.33917969 -12.796875 5.70898438 C-12.21679688 5.12568359 -11.63671875 4.54238281 -11.0390625 3.94140625 C-10.50490723 3.40201416 -9.97075195 2.86262207 -9.42041016 2.30688477 C-6.46081325 -0.41616821 -3.90529638 -0.3187997 0 0 Z " fill="#33323B" transform="translate(390,272)"/>
<path d="M0 0 C3.5 0.25 3.5 0.25 5.5 2.25 C6.16920967 5.57016731 6.38716147 7.07272403 5.5 10.25 C2.80240439 13.97139557 -0.45455102 17.00222868 -3.8125 20.125 C-4.69357422 20.97835938 -5.57464844 21.83171875 -6.48242188 22.7109375 C-15.0538644 30.94995146 -15.0538644 30.94995146 -18.796875 31.7265625 C-22.83474295 31.01468405 -25.00887714 28.46689944 -27.75 25.625 C-28.29140625 25.10292969 -28.8328125 24.58085937 -29.390625 24.04296875 C-32.73618854 20.65558567 -34.41544546 18.21757921 -34.5 13.25 C-33 10.8125 -33 10.8125 -30.5 9.25 C-25.18600338 9.25 -22.33538268 10.64706475 -18.5 14.25 C-14.01200184 10.38564427 -9.62745895 6.4988548 -5.5 2.25 C-3.5 0.25 -3.5 0.25 0 0 Z " fill="#323139" transform="translate(278.5,271.75)"/>
<path d="M0 0 C1.875 1.125 1.875 1.125 3 3 C3.38976435 6.11811483 3.50422245 8.11019567 1.9375 10.875 C-1.14071911 12.66235303 -3.52906068 12.43386742 -7 12 C-9 10.375 -9 10.375 -10 8 C-9.875 4.875 -9.875 4.875 -9 2 C-5.53076119 -0.31282587 -4.07794425 -0.42478586 0 0 Z " fill="#34323C" transform="translate(257,377)"/>
<path d="M0 0 C1.875 1.125 1.875 1.125 3 3 C3.39365568 6.14924548 3.52854531 8.11909116 1.875 10.875 C-0.88090884 12.52854531 -2.85075452 12.39365568 -6 12 C-7.875 10.875 -7.875 10.875 -9 9 C-9.39365568 5.85075452 -9.52854531 3.88090884 -7.875 1.125 C-5.11909116 -0.52854531 -3.14924548 -0.39365568 0 0 Z " fill="#313037" transform="translate(281,377)"/>
</svg>
